<?xml version="1.0" encoding="UTF-8" standalone="no"?>
<svg width="1024px" height="1024px" viewBox="0 0 1024 1024" version="1.1" xmlns="http://www.w3.org/2000/svg" xmlns:xlink="http://www.w3.org/1999/xlink" xmlns:sketch="http://www.bohemiancoding.com/sketch/ns">
    <title>AppIcon512x512@2x</title>
    <description>Created with Sketch (http://www.bohemiancoding.com/sketch)</description>
    <defs></defs>
    <g id="Page-1" stroke="none" stroke-width="1" fill="none" fill-rule="evenodd" sketch:type="MSPage">
        <g id="AppIcon512x512@2x" sketch:type="MSArtboardGroup">
            <rect id="Rectangle-1" fill="#333333" sketch:type="MSShapeGroup" x="0" y="0" width="1024" height="1024"></rect>
            <path d="M853.601169,723.832547 L853.796681,723.719844 L603.796632,291.076807 L603.691356,291.136915 C598.186934,279.85162 586.696827,272 573.281677,272 C559.513101,272 547.714687,280.234809 542.398257,292.015996 L376.024825,579.933769 L335.290594,509.442001 L335.237956,509.472055 C332.33535,503.521353 326.281989,499.373895 319.198429,499.373895 C311.949435,499.373895 305.730641,503.716705 302.925792,509.907838 L184.17464,715.432441 L183.640741,715.432441 L183.640741,716.349089 L172.143115,736.244869 C170.812128,737.988003 170,740.136868 170,742.49611 C170,748.236434 174.654696,752.887297 180.39223,752.887297 C181.535225,752.887297 182.610542,752.661892 183.640741,752.31627 L183.640741,753 L311.475694,753 L461.869756,753 L837.854911,753 L837.854911,752.624324 C847.99899,751.812865 855.999954,743.427786 855.999954,733.08168 C856.007474,729.715627 855.082551,726.605033 853.601169,723.832547 L853.601169,723.832547 Z" id="Shape" fill="#6BBF46" sketch:type="MSShapeGroup"></path>
        </g>
    </g>
</svg>